<svg xmlns="http://www.w3.org/2000/svg" viewBox="0 0 257.91 90.71"><defs><style>.cls-1{fill:#121e2e;}</style></defs><g id="レイヤー_2" data-name="レイヤー 2"><g id="レイヤー_1-2" data-name="レイヤー 1"><path class="cls-1" d="M21.41,39.44a9.27,9.27,0,0,1-.87,2.33,15.77,15.77,0,0,1-1,2.26c.08.35-.23.5,0,.95-.28.06-.21.37-.34.55a2.43,2.43,0,0,0-.05.72c-.2.4-.11,1-.4,1.29a2.66,2.66,0,0,1,0,.94c-.25.73-.12,1.66-.52,2.27.19.35-.06.46.07.8a7.49,7.49,0,0,0-.38,1.4,8,8,0,0,1-.54,2.16,11.3,11.3,0,0,1-.25,2c-.13.58,0,1.3-.39,1.75a10.15,10.15,0,0,1,0,1.91c0,.07-.15.3-.16.38-.05.41.15.93-.14,1.34.3.23.05.73,0,1.06.22.64.05,1,.28,1.71a2.31,2.31,0,0,1-1.3.44c-.27-1.52-1-2.26-1.42-3.46a25,25,0,0,1-2.16-2.08c-.31-.17-.53-.48-1-.48-.09-.25-.4-.42-.61-.57a10.7,10.7,0,0,0-1-.49,5,5,0,0,1-1.1-.67c-.61.1-.89-.33-1.31-.52a12,12,0,0,0-3.31.08A4,4,0,0,0,2,58.56c-.47.53-.53,1.29-.86,1.86a3.22,3.22,0,0,0,.35,1.47,5.29,5.29,0,0,0,.94,1.43c.21.25.45.46.63.68a1.15,1.15,0,0,1,.7.43c.22-.1.35-.06.37.13.42-.1.63.15,1,.13s.73-.15.85.15c.24.48-.56.35-.67.62-.55.06-.87-.23-1.46-.11-.06-.18-.24-.22-.5-.13-.07-.43-.44-.41-.81-.4a1.6,1.6,0,0,0-.74-.63A1.69,1.69,0,0,0,1,63.53,4.93,4.93,0,0,0,.16,62c.13-.37-.29-1.11-.12-1.5A9.41,9.41,0,0,1,.89,58.1c.42-.4.87-.8,1.25-1.24a9.94,9.94,0,0,1,4.71-.54,2.33,2.33,0,0,0,1.45.59,2.82,2.82,0,0,0,1.46.61c.13.36.51.3.72.54.34,0,.37.41.7.43s.48.35.81.4c.06.38.45.26.6.54.29.11.39.5.72.55.11.34.5.22.61.57.48.27.82.86,1.32,1.11.44-.06,0-.62.31-.79a14.86,14.86,0,0,0,.2-2.54c.32-.2,0-.8.35-1,.13-1.29.42-2.57.63-3.83a15.81,15.81,0,0,1,.79-3.62A23.68,23.68,0,0,1,18,46.29c-.08-.13-.21.05-.21.17s-.13.26-.27.32c-.17.63-.76,1-1,1.65-.08.17,0,.44-.1.62a12.74,12.74,0,0,1-.67,1.12c0,.09-.13.18-.18.27s0,.26,0,.37-.3.29-.39.44c-.2.39-.37.8-.53,1.19,0,.08-.14.21-.17.29s-.11.39-.2.64c0,.08-.12,0-.08.14a2.84,2.84,0,0,1-.31.67,9.31,9.31,0,0,0-.66,1.69c-.43.37-1.11.71-1.43,0-.12-.51.59-.53.72-.89A12.64,12.64,0,0,1,14,51.16c.2-.39.32-.82.55-1.19a2.25,2.25,0,0,0,.49-1c.2-.29.49-.51.46-.95a10.34,10.34,0,0,1,.64-.84c-.16-.24.15-.38.21-.55s.4-.59.61-1c.07-.14,0-.46.24-.43.23-.4.4-.78.67-1.22,0-.06.15-.09.18-.17s0-.46.27-.41c-.06-.8.71-1.18.84-2,.09-.31.34-.62.46-1a3,3,0,0,0,.35-1,.54.54,0,0,1,.32-.2.77.77,0,0,0,0-.35C20.87,38.85,21.12,39.19,21.41,39.44Z"/><path class="cls-1" d="M34.88,53.31c-.71.74-4.85,4.94-5.51,5,.05.43-.63.27-.65.67a3.72,3.72,0,0,0,1.05,1.43,2.57,2.57,0,0,1,.08.4c0,.07.06.16.15.13a1.23,1.23,0,0,0,0,.32c.48,2,.07,3.56,0,5.58-.3.3-.38,1-.63,1.36l.08.33-.19.17.05.21a14.25,14.25,0,0,0-.79,1.62c-.26.46-.71.74-.88,1.27a11.59,11.59,0,0,0-1.21,1.83l-.33.2a15.36,15.36,0,0,0-1,1.55c-1,.85-2.88,2.38-4.19,2.69a7.36,7.36,0,0,1-1.41.19,8,8,0,0,0-.92-.84l0-.11c-.14-.59-.45-1.16-.59-1.76a7.45,7.45,0,0,1-.09-2.11l.1-.12a4.11,4.11,0,0,1,.35-1.51l-.09-.35.19-.15a2.71,2.71,0,0,0,.08-1.2c.46-.26.28-.91.65-1.22a2.33,2.33,0,0,1,.52-1.31c0-.81.47-1.42.54-2.15.16-.17.09-.47.34-.55a.35.35,0,0,1,.15-.41l-.05-.21.21,0a9,9,0,0,0,.72-1.95c.61-.72.65-1.79,1.45-2.37.07-1.25,1.92-3.21,2.08-4.18a43.16,43.16,0,0,0,2.2-4.09c.63-.47,1.08-2.08,1.79-2.43.13-1,1-1.65,1.14-2.64.25-.19.74-1,.81-1l-.13-.57c.51-.44.64-2.15,1.22-2.29.43.12.52.42.78.75A8.18,8.18,0,0,0,32.8,45c-.39.61-.67,1.29-1.06,1.93l-.22.15a.74.74,0,0,1-.24.43c-.13.8-1.06,1.76-1.4,2.58-.45.31-.58.88-1,1.19-.18.51-1.71,3.17-2.07,3.23,0,.35.12.79-.39.81.15.54-.33.8-.53,1.19l0,.36-.23,0,0,.24c-.1.19-.29.34-.33.55.24.19.66-.11.94,0s.78.18,1.16.31c1.79-1.1,3.88-2.24,5.11-4,.28-.19.42-.42.7-.61s.38-.44.43-.75c.59-.42.73-1,1.5-1.18l.12,0c0,.19.11.27.15.43a.81.81,0,0,1,0,.22C35.52,52.17,34.94,53.12,34.88,53.31ZM21.06,76.92A23.94,23.94,0,0,1,24,74.7a14,14,0,0,1,2-2.4c.46-1,1.28-1.74,1.73-2.66C28,69,29,66,29.07,65.87a.34.34,0,0,1,.15-.39c-.2-1,.33-2,.08-3.08a6.2,6.2,0,0,0-1.16-2.34c-.12-.29-.38-.45-.52-.71l-.23,0A10.51,10.51,0,0,1,25,60.58a5.85,5.85,0,0,0-1.18,0l-.23.08a7.23,7.23,0,0,1-.71,1.45,7,7,0,0,1-1,2l.08.35c-.11.25-.35.48-.3.79-.33.08-.2.29-.22.52l-.21.17.05.21-.18.17a24.42,24.42,0,0,0-.78,2.68l-.19.15a21.58,21.58,0,0,1-.82,2.56,3.39,3.39,0,0,1-.41,1.78c.13.74.11,1.48.19,2.2.37.31.33.89.64,1.26C20.12,77.13,20.6,76.84,21.06,76.92ZM25,59.27a1.64,1.64,0,0,1,.49-.1c.12,0,.21-.07.17-.21l0-.07-.3.08C25.15,59,25,59.07,25,59.27Z"/><path class="cls-1" d="M41.25,53.92c.14-.15.2-1,.33-1.21A3,3,0,0,0,42,51.37a.88.88,0,0,0,.29-.32c0-.06,0-.2,0-.23s.19,0,.23-.06a1.43,1.43,0,0,0,.28-.78c.25,0,.31-.27.39-.34s.18-.39.26-.46,0-.22.06-.24a1.3,1.3,0,0,1,1-.47,6.54,6.54,0,0,1,.61.57c-.11,1-.89,1.55-1.2,2.41-.2.39-.61,1.36-.81,1.75s-.58.68-.41,1.28c.28.16.74-.1.86-.33a8.93,8.93,0,0,0,2.23-1.59A1.33,1.33,0,0,0,46.4,52a3.83,3.83,0,0,1,.28-.29c.07-.11.2-.19.27-.31a9.5,9.5,0,0,1,.78-.78,2.86,2.86,0,0,0,.27-.31,16,16,0,0,0,1.25-2.18,1.68,1.68,0,0,1,.49-1c.23-.26.07-.71.65-.75.41-.17.4.4.7.42,0,1.24-.78,2-1.18,3-.63.87-.68,2.09-1.32,2.94.06.53.06,1-.41,1.28.2.39-.07.53.12.91-.43.35-.38,1-.46,1.54-.06.26-.13.5-.17.76s-.47.28-.19.76c.39.25.69-.34,1-.48a6.92,6.92,0,0,1,1-.76,47.31,47.31,0,0,1,4.16-3c.45-.25,1.09-.38,1.45-.81.93-.08,1.14-.75,1.8-.44.27.73-.2,1-.76,1.25A14,14,0,0,0,53.86,55a6.26,6.26,0,0,0-1.43.94c0,.23-.64.13-.63.37-.84.62-1.63,1.41-2.48,2s-1.53,1.33-2.24,2c-.27.43-.15,1.12-.47,1.54a4.67,4.67,0,0,1-.33,1.61c0,.58-.27,1-.3,1.61-.42.32-.26,1-.5,1.42-.26,1.06-.59,2.07-.92,3.06a1.5,1.5,0,0,1-.21.65.91.91,0,0,1-.07.14c-.07.19.06.65-.33.67.16.65-.52.82-.33,1.51-.27.19-.32.5-.68.63a3,3,0,0,1,0,.85c-.47.59-.65,1.37-1.33,1.85a2.28,2.28,0,0,0-.16.76c-.62.2-.72.72-1,1.07-.76.35-1.64.91-2.43.7a5.85,5.85,0,0,1-1.08-2.45,11.59,11.59,0,0,0,.09-1.68c.4-.78.38-1.82.79-2.56-.06-.55.32-.84.41-1.28a1.79,1.79,0,0,1,.57-1.1c0-.33.13-.62.12-1,.68-.36.55-1.19,1-1.68.18-.36.38-.66.55-1.07s.82-1,1-1.68a22.56,22.56,0,0,0,1.69-1.81c.19-.22.36-.43.56-.63a3.76,3.76,0,0,0,.28-.29c.1-.1.31-.12.44-.23s.05-.3.13-.37.29-.12.41-.23a8.88,8.88,0,0,0,1.17-1.12c.26-1.27.52-2.54.72-3.85,0-.29.28-.41.2-.74.32-.1,0-.57.16-.75s.16-.48.16-.76c-.41,0-.53.45-.78.66s-.55.35-.8.56c-.06,0,0,.1-.09.12s-.5.39-.71.54-.56.34-.81.54c-.24,0-.29.15-.42.23a5.3,5.3,0,0,1-2.29.3C40.91,55.36,41.24,54.59,41.25,53.92Zm3.87,7.57a5.76,5.76,0,0,0-.86.92,12,12,0,0,0-1.69,1.81,18.67,18.67,0,0,0-2.09,3.12c-.33.28-.37.73-.58,1.08,0,.25-.23.37-.34.55s-.11.45-.33.57A22.67,22.67,0,0,1,38.51,72,13.16,13.16,0,0,0,38,74.59c.06.87.07,1.81.68,2.31.91-.12,1.08-.73,1.76-1,.08-.69.8-1,.91-1.63.38-.16.32-.64.4-.81s.38-.56.51-.84a7.52,7.52,0,0,0,.63-1.8c.39-.34.36-.85.52-1.31s.37-.86.51-1.31.24-.92.37-1.4a4,4,0,0,0,.36-1.49c.37-.51.25-1.32.62-1.83a7.35,7.35,0,0,1,.49-2c-.05-.09-.08-.23-.18-.21S45.36,61.48,45.12,61.49Z"/><path class="cls-1" d="M54.11,47a5.6,5.6,0,0,1,.45-.58c.66-.25.82-.81,1.38-1.14a8.79,8.79,0,0,0,.66-1.25c.61-.24.92-.69,1.67-.87.44.19,1.31.3,1.44,1a4.92,4.92,0,0,1,.57,1.15s.17.06.34,0a1.19,1.19,0,0,0,.33-.18,1.77,1.77,0,0,1,.94-.28,2.73,2.73,0,0,1-.32,1.12l-.3.19c-.34.23-.13.06-.45.28s-.37.29-.37.31a7.18,7.18,0,0,1-.87,2.34c-.11.17-.61.64-.49.83-.27.11-.13.3-.33.67a12.86,12.86,0,0,1-2.28,2.33,6.33,6.33,0,0,1-2.5.48,4.85,4.85,0,0,1-.75-2.07c.06-.29.08-.61.16-.88,0-.1.25-.21.27-.31s0-.31,0-.47A5.41,5.41,0,0,1,54.11,48,5.67,5.67,0,0,0,54.11,47Zm1.56,1.06c-.27.09-.26.35-.34.55-.32.69-.48,1.49-.8,2.09.12.49-.17.73.06,1.29l1.15-.27a4.68,4.68,0,0,0,1-.83c.07-.12.08-.07.21-.17.3-.3.41-.75.84-.92a6.89,6.89,0,0,1,.49-.93,3.5,3.5,0,0,1,.61-.87c.09-.32.28-.36.19-.73a4,4,0,0,1-1.51.68c-.2-.1-.52,0-.82.1a3,3,0,0,0-1-.35C55.72,47.88,55.58,47.91,55.67,48.09Zm2.26-2.92c-.07.32-.37.49-.68.64,0,.25-.5.71-.14.87,0-.19.16,0,.17.18A4.53,4.53,0,0,0,59.23,46c-.16-.43-.17-1.09-.44-1.32a3.91,3.91,0,0,0-.82.1C58,45,57.84,45,57.93,45.17Z"/><path class="cls-1" d="M75.63,44.25a7.41,7.41,0,0,1,.64.91A18.07,18.07,0,0,1,75,46.48a11.53,11.53,0,0,1-2.31,2,3.42,3.42,0,0,0-.86.42c-.51.13-1.1,0-1.62.15-.38-.08-.61-.42-.89-.73a3.18,3.18,0,0,0-1.23,1.24c-.79.39-1.57,1.17-2.46,1.55-.18.07-.41.08-.56.14a2.26,2.26,0,0,1-1.27.18c-.52,0-.7-.65-1.06-.93,0-.45,0-1,0-1.44a44.66,44.66,0,0,1,1.78-4.33c-.14-.33.82-1.6.8-1.89s0-.51.34-.55c.48-.24.67,0,1,.13.35,1.06-.25,1.54-.67,2.16a2,2,0,0,1-.51,1.16,13,13,0,0,1-1.1,2.42c0,.73-.71,1.06-.28,2,1.24.12,2-.86,2.88-1.28.43-.47.91-.84,1.37-1.27a6.67,6.67,0,0,1,1.23-1.26,19,19,0,0,1,1.79-3.54c.15-.28.19-.64.51-.84-.08-.33.16-.46.31-.66a1.37,1.37,0,0,0,.43-.7c.1-.1.41-.54.65-.26.48-.06.58.78.48,1.07,0,.06-.1,0-.09.13s0,.28-.1.51c-.41.77-.78,1.57-1.23,2.3s-1.65,2.27-1.6,3.27A1.94,1.94,0,0,0,72,47.6a9.19,9.19,0,0,0,2.72-2.33A13.85,13.85,0,0,1,75.63,44.25Z"/><path class="cls-1" d="M97,39.45a3.67,3.67,0,0,1-1.6,2c-.28.26-.63.57-.94.82,0,0-.12.3-.14.3-.22.13-.59.24-.58.59-.5,0-.39.33-.74.4-.31.34-.89.53-1.14.93-.16.12-.68,0-.62.28s-.54.1-.51.34a5.51,5.51,0,0,0-2,.8,16.66,16.66,0,0,1-2.71.52,3.11,3.11,0,0,0-1.28-.4c-.15-.31-.3-.65-.64-.69-.15-.75-.29-.62-.41-1.43-.07-.48.17-1.23.15-1.72a25.16,25.16,0,0,1,1.26-2.55c1-1.54,2.21-3.36,4.86-3.53a9.86,9.86,0,0,1,1.67,2.56c-.24,0,0,.4,0,.58-.23.36-.64,1.12-1.48.71,0-.2-.14-.37-.14-.56,0-.39.35-.73.15-1.35-.06-.23-.21-.34-.37-.6a1.56,1.56,0,0,0-1.71.29c.17.2.17.2-.09.14s-.11.23-.18.27-.24,0-.33.08-.2.39-.5.37c0,.18-.25.28-.36.43s0,.55-.36.46c.09.37-.14.55-.31.78,0,.59-.65.78-.59,1.43-.27.14-.33.38-.46.58,0,1-.54,1.22,0,2.26a2.26,2.26,0,0,0,1.72.77A11,11,0,0,0,90.11,44a10.16,10.16,0,0,0,1-.6c.75-.37,1.14-1.11,1.89-1.49a14.94,14.94,0,0,1,1.8-1.44c.55-.48.88-1.25,1.52-1.68C96.7,38.47,97.08,38.38,97,39.45Z"/><path class="cls-1" d="M109.93,36.08c-.35.3-.65,1-1,1.27s-.22.42-.57.73-.57.68-.92,1c-.19.15-.44.21-.63.38s-.21.32-.5.36c-.3.5-1,.55-1.27,1.1-.79.29-1.36.38-2.1.7,0-.23-.48.07-.68,0-.09-.27-.48,0-.57-.33-.22,0-.15-.48-.44-.36s-.35.38-.6.49a5.28,5.28,0,0,0-1,.83,11.54,11.54,0,0,0-1,.73,4.85,4.85,0,0,1-1.37.68.6.6,0,0,0-.59,0,2.19,2.19,0,0,1-1.09-2.1,3,3,0,0,0,.26-1.37c.28-.39.37-.91.62-1.34.39-.83,1-1.55,1.45-2.35a3,3,0,0,0,.79-1.15c.58-.16.64-.62,1-.92s.94-.52,1.08-1c1-.38,1.52-1,2.49-1.44.86,0,1.4.71,1.35,1.71-.14.25-.22.54-.52.71.1.23-.2.22-.16.39s-.25.16-.41.22c-.56-.48.1-.91,0-1.43-.63-.15-.9.46-1.65.52a7.15,7.15,0,0,1-1,.71c-.28.27-.39.61-.75.77-.54.53-.81,1.24-1.5,1.67a14.35,14.35,0,0,1-.7,1.48c-.26.16-.26.48-.43.7s-.11.57-.42.69a10.07,10.07,0,0,0-.2,2.17c.77.24,1.24-.5,1.86-.67,0-.21.16-.18.27-.31a3.69,3.69,0,0,0,.28-.29c.18-.17.67-.29.56-.63a.88.88,0,0,0,.65-.28c.25-.08.12-.42.49-.46,0-.49.22-.82.14-1.34.17-.32.46-.56.35-1,.84-.52.58-1.69,1.91-1.89.31,0,.4.43.61.57.24.69-.36.86-.24,1.49a2.49,2.49,0,0,0-.55,1.07,1.93,1.93,0,0,0-.54.73c-.13.2-.55.37-.28.78,0,.42.51,0,.63.19a2.9,2.9,0,0,1,.66-.25c.34-.21.65-.19,1-.46s.7-.46,1-.71l1.8-1.37a3.24,3.24,0,0,1,.77-.9c.4-.37.72-.79,1.19-1.22C109.39,35.37,109.86,36.12,109.93,36.08Z"/><path class="cls-1" d="M119.81,35.18c-.37.24-.41.45-1,.88-.31.44-.54.4-.88.83-.72.81-1.78,1.14-2.55,1.92-.65.18-1.45.67-2.09.25a2.45,2.45,0,0,1,0-1.41s-.1-.2-.06-.23,0-.2,0-.36.16-.06.18-.17,0-.33.13-.5.18-.26.24-.42-.06-.19-.05-.21a1,1,0,0,0,.18-.29c.16-.39.55-1.94.7-2.52a17.39,17.39,0,0,0-3.06,3.36,3.94,3.94,0,0,0-.54.87c-.43.45-.45,1.09-.86,1.56-.36.11-.2.57-.54.72-.19.22-.32.5-.54.72-.6.07-.65.48-1,.14-.19-.55.07-.84.17-1.23a3.29,3.29,0,0,0,.46-1.05,29.14,29.14,0,0,0,.92-3.16c0-.42,0-2.48,0-2.79s.33-.45.92-.49c.48.28.58,2.43.41,3,.18,0,0,.12.06.23l-.12,0c.15.31.15-.21.32-.2s0-.32.33-.3c0-.33.35-.5.39-.81.28,0,.33-.2.51-.37a5.52,5.52,0,0,0,.75-.77c.1-.1.17-.31.27-.41a18.79,18.79,0,0,0,1.65-1.58c.35-.28,1.19-1,1.83-.81a1.35,1.35,0,0,1-.16,1.81c.15.43-.38.46-.25.9-.32.13-.14.55-.43.7a7.78,7.78,0,0,1-.82,2.52,4.12,4.12,0,0,1-.28.9c-.32.13-.08.59-.28.78.26.26.36-.35.62-.39s.62-.08.77-.29.27-.21.51-.34A10,10,0,0,0,119,34.39a2.23,2.23,0,0,0,.73-.62,3.56,3.56,0,0,0,.47-.65c.16-.12.42-.48.57-.59.39-.33.65-.79,1.32-1,.38,1.07.23,1.58-.12,1.68s-.54.28-.54.38A10.76,10.76,0,0,1,119.81,35.18Z"/><path class="cls-1" d="M147.43,26.17c-.49.51-.41,1-.81,1.33a3.71,3.71,0,0,1-.7.79c-.15.5-.64.62-1,1a9.72,9.72,0,0,1-1.41,1.33,8,8,0,0,0-1.11.93c-.49.2-.9.47-1.41.71-.26.14-.24.31-.71.42a4.26,4.26,0,0,1-2,.87c-.63.15-1.07.2-1.28-.68A7.1,7.1,0,0,1,137.4,30c0-.06-.07-.08-.09-.07s-.25.4-.35.42,0,.3,0,.31c-.19,0-.21.57-.51.64,0,0-.07,0-.1,0-.18.48-.8.71-1,1.18a14,14,0,0,0-1.28,1.14c-.35.41-.82.62-1.05,1.09a10.52,10.52,0,0,0-1.85.82l-1.24.3c-.34-.29-.76-.61-.84-.94a15.93,15.93,0,0,1-.12-2c.64-1,.91-2.71,1.83-3.28.16-.48.63-.76.76-1.26a.32.32,0,0,0,.14,0c.26-.07.32-.35.46-.48s.54-.21.6-.49c.52-.4,1-.61,1.31-.91s.69-.29.82-.57a15,15,0,0,0,1.52-.59,6.79,6.79,0,0,1,2.63.18,44.46,44.46,0,0,0,2.33-5.1c.26-.95,1-1.64,1.14-2.64.24-.43.63-.77.64-1.34.07-.22.41-.27.33-.6l0-.07c.23-.08.13-.37.39-.44l.09,0a5.47,5.47,0,0,1,.41-1.28c.39-.54,1-.89,1.15-1.59l.33-.07a.63.63,0,0,1,.49,0l0,.07c0,.12.14.06.17.18.2.84-.53,1.09-.36,2-.23.13-.21.44-.45.57a4.08,4.08,0,0,1-.42,1.76c-.16.46-.32,1.31-.7,1.48.05,1.36-.81,2.17-1.1,3.35-.53.74-1.44,2.61-1.79,2.7a.38.38,0,0,1-.15,0c.13.54-.78.83-.7,1.48-.7.61-.89,2.06-1.47,2.2a.38.38,0,0,1-.15,0,4.61,4.61,0,0,1-.71,1.46c.18,1-.46,1.56-.32,2.57a.43.43,0,0,0,.44.09c.59-.14.7-.59,1.24-.72l.16,0c.5-.49,1-.33,1.47-.75a5.26,5.26,0,0,1,1.08-.67,6.56,6.56,0,0,1,1.5-1.45c.43-.48.45-.26.74-.8.63-.37.46-.55,1.1-.88a8.53,8.53,0,0,0,1.1-1.4C147.36,25.86,147.11,26,147.43,26.17Zm-9.93.39c-.05-.22-.54.08-.57,0s.15-.21-.16-.13l-.28.06a6.13,6.13,0,0,0-1.79.78s0,.1-.06.14a3.53,3.53,0,0,0-1.43,1.06,12.83,12.83,0,0,0-3,4.27,3.14,3.14,0,0,0-.2,1.63c.07.28.21.25.37.21s.38-.17.54-.21a.53.53,0,0,1,.28,0,3.13,3.13,0,0,1,1.13-.74,2.79,2.79,0,0,1,1.1-.86c.94-1.24,2.48-2.1,3.18-3.48,0,0,.06,0,.08,0,.33-.08.61-.77.63-.65a.17.17,0,0,0-.05-.11c.35-.18,1.12-1.21,1-1.58A.75.75,0,0,0,137.5,26.56Zm6.35-9.16c-.12.25-.15.53-.28.79-.06.08-.49.75-.42.74-.21.05,0,.67-.32.74l-.06,0a0,0,0,0,0,0,.06,1.09,1.09,0,0,1-.57,1c.13.54-.31.77-.29,1.25a2.17,2.17,0,0,1-.59.52.4.4,0,0,1,.06.16c.07.28-.38.58-.29.93,0,.05.07.08.17.11a15.06,15.06,0,0,0,1.18-2c.27-.63,1.11-1.87,1.09-1.94a1.18,1.18,0,0,0-.06-.13c0-.07.19-.15.11-.5s1.32-2.61,1.18-3.19c0-.05,0-.1-.05-.11C144.42,16.42,144.09,16.9,143.85,17.4Z"/><path class="cls-1" d="M155.3,24.82s.52.81.52.81a10.36,10.36,0,0,1-.64,1,12.94,12.94,0,0,1-3.41,3.07,10.22,10.22,0,0,1-2.16.39,1.38,1.38,0,0,1-.58,0c-.06,0,0-.09-.15-.09-.3.07-.57-.31-.84-.51a4.29,4.29,0,0,1-.06-1.27c.45-.9.61-1.8,1.14-2.65a3.8,3.8,0,0,0-.7-1.38c-.64.32-1.91,3.56-2.51,3.91l-1-.39c.28-.39.71-1.35,1-1.66a15.31,15.31,0,0,1,1.35-2.57c0-.27.6-.91.75-1.12s-.12-.59.43-.55.68.75.92,1.34c.25.23.42.64.68.89,0,.56.54.69.65,1.16-.21.05-.09.36-.13.5a4.1,4.1,0,0,1-.25.4,8,8,0,0,1-.65,1.71c0,.36-.48.46-.23,1a3.57,3.57,0,0,0,1.95-.22c1.27-.46,2.21-1.79,2.94-2.66C154.6,25.58,155.31,24.84,155.3,24.82Z"/><path class="cls-1" d="M164.86,24.12a11.24,11.24,0,0,1-4.6,3.78,6.2,6.2,0,0,1-3.91,0c-.56.06-.9-.52-.95-1a3.7,3.7,0,0,1-.48-1.57s.09-.07.07-.14c0-.25.12-1.46.37-1.64,0-.36.07-.73.37-.93.1-.69.67-1.12.86-1.74A5.16,5.16,0,0,0,158,19.52c.83-.12,1.06-.62,1.83-.79.39.18.49.48.57.93,0,.19,0,.15,0,.26s.09.57,0,.82c.22.91-.4,2.12-.27,3-.29.24-.4.79-.55,1.09s-.45.48-.52.82c-.49.31-.67.8-1.17,1.12a3.54,3.54,0,0,0,1.37.24l.23-.06a9.45,9.45,0,0,0,3.69-2.54,5.54,5.54,0,0,1,.77-.7,4.3,4.3,0,0,1,.81-.52A5.16,5.16,0,0,1,164.86,24.12Zm-6.42-3.39c-.58.54-.79,1.33-1.35,1.76-.24.87-1,2.45-.71,3.65a2.12,2.12,0,0,0,.86-.45,5.36,5.36,0,0,0,.57-.61,14.62,14.62,0,0,0,1.35-3.34,2.12,2.12,0,0,0,.19-1.23c0-.06-.07-.2-.17-.18C158.93,20.61,158.61,20.59,158.44,20.73Z"/><path class="cls-1" d="M178.74,19.53c-.35.3-.65,1-1,1.27s-.22.42-.56.73-.58.68-.93,1c-.18.15-.44.21-.62.38s-.22.32-.51.36c-.3.5-1,.55-1.26,1.1-.8.29-1.37.38-2.11.7-.05-.23-.47.07-.68,0-.09-.27-.48-.05-.57-.33-.22,0-.14-.48-.43-.36s-.36.38-.6.49a5.3,5.3,0,0,0-1,.83c-.13.15-.71.42-1,.73a4.65,4.65,0,0,1-1.36.68.62.62,0,0,0-.59,0,2.18,2.18,0,0,1-1.1-2.11,2.8,2.8,0,0,0,.26-1.37c.28-.39.38-.91.62-1.33.39-.84,1-1.56,1.46-2.35a3.09,3.09,0,0,0,.78-1.16c.58-.16.64-.62,1-.92s.93-.52,1.07-1c1-.39,1.52-1.06,2.49-1.44.86,0,1.41.7,1.35,1.7-.14.25-.21.54-.52.72.1.22-.19.21-.15.38s-.26.16-.42.22c-.56-.48.1-.91,0-1.43-.63-.15-.9.46-1.65.52a6.34,6.34,0,0,1-1,.71c-.29.27-.4.62-.75.78-.55.52-.82,1.23-1.51,1.67a13.19,13.19,0,0,1-.7,1.47c-.26.16-.26.48-.43.7s-.11.57-.42.69a10.13,10.13,0,0,0-.2,2.17c.78.24,1.24-.49,1.87-.67-.05-.21.15-.18.27-.31a3.58,3.58,0,0,0,.27-.29c.19-.17.68-.28.57-.63a.88.88,0,0,0,.65-.28c.25-.08.12-.42.48-.46,0-.49.22-.82.14-1.34.18-.32.46-.56.35-1,.84-.53.58-1.7,1.92-1.9.3.05.39.43.6.57.24.69-.36.86-.23,1.49A2.4,2.4,0,0,0,172,22a2.14,2.14,0,0,0-.54.73c-.13.2-.55.38-.28.78,0,.43.52,0,.64.19.16-.14.45-.16.65-.25.35-.21.65-.18,1-.45s.71-.47,1-.72c.6-.46,1.19-.9,1.79-1.37A3.39,3.39,0,0,1,177,20c.41-.37.73-.79,1.19-1.22C178.2,18.82,178.68,19.57,178.74,19.53Z"/><path class="cls-1" d="M195.07,17.85C194,18.4,194,18.94,193,19.52s-2.09,1.44-3.28,1.13c-.74-.41-.61-1.61-.7-2.42.22-.1,0-.45.23-.55,0-.19-.25-.53.11-.5a1.29,1.29,0,0,1,.11-1.08,5.79,5.79,0,0,1,.23-1,2.41,2.41,0,0,0,.22-1c-.65.18-.75.77-1.13,1.23a23.58,23.58,0,0,0-1.84,3.16,5.67,5.67,0,0,1-.72,1,11.55,11.55,0,0,1-1,2.24c-.66,0-.6.47-1.18.53-.15-.31-.53-.47-.19-.79,0-.34-.09-.7.17-.86a9,9,0,0,0,.38-1.77c.34-.45.29-1.18.57-1.67-.07-.67,0-1.24,0-1.9-.55-.14-.93.57-1.22.89a3.41,3.41,0,0,0-.9,1.18,3.07,3.07,0,0,0-.88,1.27c-.54.23-.43.87-1,1.07a7.56,7.56,0,0,1-1.19,2c.08.2-.15.38-.22.52s0,.45-.24.53c0,.44-.35.68-.44,1-.65.06-1.06.6-1.49.26a2.25,2.25,0,0,0-.09-.35.67.67,0,0,1,.13-.5c.4-.69.32-1.88.64-2.77.05-.63.32-1.14.4-1.75a2.14,2.14,0,0,0,.13-.79c0-.69.09-1,.11-2.2.09-.57-.48,0-.49-.48-.22-.51.39-.54.26-1,.38-.14.19-.64.37-.93,0-.12.19-.12.16-.26l.23-.05c1.19.11,1.09,2.15.59,2.94.06.26,0,.57.07.82a3,3,0,0,0-.07.86c.13.31-.14.72,0,1.24.14.26.25-.28.54-.23,0-.23.37-.29.33-.57a1.76,1.76,0,0,0,.82-1,7.75,7.75,0,0,0,.95-.95c.27-.36.73-.59.84-1,1-.38,1.21-1.23,2.21-1.59,1,.52.74,2,.87,3.12.09.25.27-.21.42-.22a.67.67,0,0,1,.27-.44c.06-.36.37-.58.61-.84.26-.65,1-1,1.14-1.7.81-.47,1.09-1.25,1.83-1.75,1,.26.94,1.75.59,2.47,0,1.27-.67,2.14-.74,3.37a3.67,3.67,0,0,0,0,1.9c1,.19,1.35-.75,2.13-1,.1-.1.06-.29.29-.32s.34-.23.51-.35a6.94,6.94,0,0,0,.9-.7c.5-.47.26-.76.88-1.13.51-.67,1.8-3.22,2-.74C196.61,15.63,195.77,17.38,195.07,17.85Z"/><path class="cls-1" d="M209.23,14.62c-.09-.16-.73.37-.72.51a20.28,20.28,0,0,1-1.75,1.14c0,.28-.31.13-.53.25,0,0-.23.28-.27.31-.56.24-1.2.27-1.66.5-.14-.29-.53-.17-.6-.55a1.78,1.78,0,0,1-.18-1,6.47,6.47,0,0,1,.77-2c.57-.78,1.05-2.4,1.68-3.15,0-.27.25-.42.46-.58-.06-.33.27-.41.31-.66a5.13,5.13,0,0,0,.44-.6c.19-.15,0-.48.48-.46.46-.16.43.44.73.54.05.73-.62,1-.66,1.69-.53.35-.48,1.07-.84,1.51-.53.37-.79,1.64-1.23,2.09-.16.56-.75.88-.67,1.6.53.19,1.14-.37,1.38-.7a5.78,5.78,0,0,0,1.94-1.29c.53-.47,1-.86,1.55-1.36.42-.29.34-.62.68-.95s.82-.79,1.4-1c.43.66.17,1.47-.75,2.26-.1.27-.45.47-.58.73C210.39,13.89,209.37,14.06,209.23,14.62ZM210.76.37a4.67,4.67,0,0,1,.76,1.6c-.21.47-1.05.45-1.47.35C209.79,1.37,209.57.44,210.76.37Z"/><path class="cls-1" d="M220.2,11.61c-.5.39-.68.75-1,1a6.26,6.26,0,0,1-.86.82,2.66,2.66,0,0,0-.44.33c-.13.08-.13.18-.39.32s-.52.32-.72.42,0-.08-.45.16a1.89,1.89,0,0,0-.62.39,7.13,7.13,0,0,0-2,.37c-.19-.2-.55-.14-.88-.16-.39-.4-1.1-.68-1.4-1.44a4.42,4.42,0,0,1-.2-1.83,10.08,10.08,0,0,1,.31-2.1,24.4,24.4,0,0,1,.92-3.18c-.21-.15-.6,0-.94.1s-.78.36-1.28.55c-.7.25-1.58.83-2,.11-.16-.43.52-.37.68-.63s.7-.27.81-.54c1.15-.35,2.19-.77,3.28-1.16a.79.79,0,0,0,.36-.43c0-.11,0-.25,0-.36s.51-.74.67-1.12c.33-.67.53-1.39.8-2.09.33-.38.12-1.07.91-1.16.47-.11.28.77.59.92-.29,1.23-1.12,2.12-1.18,3.49.1.23.57-.08.82-.07,2.53-.86,5.26-1.64,7.8-2.47.31.07.75.16.56.58-.57.19-1,.38-1,.35-.66.13-1,.44-1.77.55-.42.39-.91.31-1.48.7a3.52,3.52,0,0,1-1.15.18c-.68.53-.82.17-1.53.59a.81.81,0,0,1-.65.15,2.83,2.83,0,0,1-.63.4c-.26.12-1-.26-1.23.3.08.23-.39.14-.53.25-.1.71-.63,1.19-.72,2-.47.53-.26,1.2-.77,1.71.09.3-.2.52-.28.79s0,.65-.26.87c.07.93-.13,1.74.48,2.51a2.46,2.46,0,0,0,.78.28c.1,0,.09.07.12.09.83.17,1.78-.42,2.56-.74a3.1,3.1,0,0,0,1.16-.82,6.41,6.41,0,0,1,.58-.48c.16-.14.26-.34.45-.48a5.3,5.3,0,0,1,.65-.28c.06-.29.49-.32.81-.44C220.32,11.08,219.93,11.4,220.2,11.61Z"/><path class="cls-1" d="M223.86,9.69l.06.26a.6.6,0,0,1,0,.44h0a3.64,3.64,0,0,0-.29,1.6l0,.11a2.8,2.8,0,0,0-.48,1,18.46,18.46,0,0,1-1.44,2.84c.09.4-.28.49-.31.79s-.23,1-.65,1.09a.38.38,0,0,1-.51-.27,1.75,1.75,0,0,1,.19-1,5.66,5.66,0,0,1,.66-1.69,4,4,0,0,1,.79-1.62.25.25,0,0,1,0-.11,7.26,7.26,0,0,1,.26-1.47,1.82,1.82,0,0,1,.15-.41c.06-.28-.22-.71.09-1.08v0c-.07-.25.41-.42.55-.45A2,2,0,0,1,223.86,9.69Z"/><path class="cls-1" d="M114.81,66.22c.13-.16.19-1,.32-1.21a3,3,0,0,0,.44-1.34,1,1,0,0,0,.3-.32c0-.06,0-.21,0-.23s.19,0,.24-.06a1.54,1.54,0,0,0,.28-.78c.24,0,.3-.27.38-.34s.18-.39.26-.46,0-.23.07-.24a1.22,1.22,0,0,1,1-.47,6.43,6.43,0,0,1,.6.57c-.11,1-.88,1.54-1.2,2.41-.2.39-.61,1.35-.81,1.75s-.57.68-.41,1.28a.75.75,0,0,0,.86-.33,9,9,0,0,0,2.24-1.6,1.29,1.29,0,0,0,.59-.51,1.94,1.94,0,0,1,.28-.29c.07-.11.19-.19.27-.31a9.23,9.23,0,0,1,.77-.78,2.73,2.73,0,0,0,.27-.31,16,16,0,0,0,1.26-2.18,1.64,1.64,0,0,1,.48-1c.24-.25.08-.71.66-.75.4-.17.39.4.69.43,0,1.24-.77,2-1.18,3-.63.87-.68,2.09-1.31,2.93,0,.53,0,1-.41,1.29.19.39-.07.53.12.9-.44.36-.38,1-.47,1.55a7.2,7.2,0,0,0-.16.75c.11.37-.48.29-.19.77.38.25.68-.34.95-.48a5.85,5.85,0,0,1,1-.76,43.81,43.81,0,0,1,4.15-3c.46-.26,1.1-.38,1.46-.82.92-.07,1.13-.74,1.8-.43.27.72-.2,1-.76,1.24a15.49,15.49,0,0,0-2.23,1.13,6.49,6.49,0,0,0-1.43.94c0,.22-.63.13-.62.37-.84.62-1.64,1.41-2.48,2s-1.53,1.34-2.24,2c-.27.44-.15,1.13-.47,1.55a5.24,5.24,0,0,1-.33,1.61c0,.58-.27,1-.31,1.6-.41.33-.25,1-.49,1.43-.27,1-.59,2.07-.92,3.06a1.58,1.58,0,0,1-.22.64s-.06.14-.06.14c-.08.2.06.66-.33.68.15.65-.52.81-.33,1.51-.28.19-.33.49-.69.63a3.46,3.46,0,0,1,0,.85c-.48.59-.66,1.37-1.33,1.85a2.06,2.06,0,0,0-.17.76c-.62.2-.71.71-1,1.06-.75.36-1.63.92-2.42.71a5.85,5.85,0,0,1-1.09-2.45,11.66,11.66,0,0,0,.1-1.68c.4-.79.37-1.82.79-2.56-.06-.55.31-.84.4-1.28a1.72,1.72,0,0,1,.58-1.1c0-.33.12-.63.11-1,.68-.36.55-1.19,1-1.68.18-.36.38-.66.56-1.07s.82-1,1-1.68a22.47,22.47,0,0,0,1.68-1.81c.2-.22.37-.44.57-.63s.21-.23.27-.29.32-.13.44-.23,0-.31.13-.38.29-.12.42-.22a8.22,8.22,0,0,0,1.16-1.12c.26-1.27.52-2.54.73-3.85,0-.29.27-.41.19-.74.32-.1,0-.57.17-.76s.15-.48.16-.75c-.42,0-.53.45-.78.66s-.56.35-.8.56c-.07,0,0,.09-.1.12s-.5.39-.71.54a6.61,6.61,0,0,0-.8.54c-.25,0-.29.14-.42.22a5.21,5.21,0,0,1-2.3.31C114.46,67.66,114.79,66.89,114.81,66.22Zm3.86,7.56a6.32,6.32,0,0,0-.86.93,12,12,0,0,0-1.69,1.81A18.88,18.88,0,0,0,114,79.64c-.32.27-.36.73-.58,1.07,0,.26-.23.38-.33.56s-.12.44-.33.57a21.19,21.19,0,0,1-.73,2.42,13,13,0,0,0-.55,2.63c.06.87.06,1.81.67,2.3.91-.12,1.09-.73,1.76-1,.08-.69.8-1,.92-1.63.38-.17.31-.64.39-.81s.39-.56.52-.84a7.6,7.6,0,0,0,.63-1.81c.38-.34.36-.85.52-1.31s.36-.85.5-1.3.25-.93.38-1.4a4.23,4.23,0,0,0,.36-1.49c.37-.51.25-1.32.62-1.83a7.51,7.51,0,0,1,.48-2c0-.08-.08-.22-.17-.2S118.92,73.77,118.67,73.78Z"/><path class="cls-1" d="M127.66,59.33a6.09,6.09,0,0,1,.46-.58c.65-.26.81-.81,1.38-1.15a11.31,11.31,0,0,0,.66-1.24c.61-.25.92-.69,1.67-.87.44.19,1.3.3,1.44,1a4.92,4.92,0,0,1,.57,1.15s.16,0,.34,0,0,0,.32-.17a1.78,1.78,0,0,1,.95-.28,2.52,2.52,0,0,1-.33,1.11s-.12.08-.29.2c-.34.23-.14.06-.45.28S134,59,134,59a7.13,7.13,0,0,1-.87,2.33c-.11.18-.62.64-.5.84-.26.11-.12.3-.33.67A12.53,12.53,0,0,1,130,65.18a6.28,6.28,0,0,1-2.5.47,4.63,4.63,0,0,1-.74-2.06,6.22,6.22,0,0,1,.16-.88c0-.11.24-.21.27-.31s0-.32,0-.47a5.4,5.4,0,0,1,.43-1.59A4.86,4.86,0,0,0,127.66,59.33Zm1.57,1.05c-.28.09-.26.36-.34.55-.33.7-.48,1.5-.81,2.1.12.49-.17.73.07,1.29l1.14-.28a4.74,4.74,0,0,0,1-.82c.07-.12.08-.07.2-.18.3-.29.42-.74.84-.91a6.56,6.56,0,0,1,.5-.94,3.6,3.6,0,0,1,.6-.86c.1-.32.28-.36.19-.74a4,4,0,0,1-1.51.69c-.19-.1-.51,0-.81.1a3.07,3.07,0,0,0-1-.35C129.27,60.17,129.13,60.21,129.23,60.38Zm2.26-2.91a1.09,1.09,0,0,1-.69.63c0,.25-.49.72-.14.87,0-.19.17,0,.17.19a4.55,4.55,0,0,0,1.95-.82c-.15-.43-.16-1.09-.44-1.32a3.82,3.82,0,0,0-.81.1C131.54,57.26,131.4,57.29,131.49,57.47Z"/><path class="cls-1" d="M149.19,56.55a7.23,7.23,0,0,1,.63.9,18.15,18.15,0,0,1-1.31,1.33,11.45,11.45,0,0,1-2.3,2,3.46,3.46,0,0,0-.86.43c-.51.12-1.11,0-1.62.14-.39-.08-.62-.41-.89-.72a3.09,3.09,0,0,0-1.23,1.23c-.8.39-1.58,1.17-2.47,1.56-.18.07-.4.07-.56.13a2.21,2.21,0,0,1-1.26.19c-.53,0-.7-.65-1.07-.93,0-.46,0-1,0-1.44a42.22,42.22,0,0,1,1.77-4.33c-.13-.34.82-1.6.8-1.89s0-.52.34-.55c.49-.25.68,0,1,.13.35,1-.24,1.54-.66,2.16a2,2,0,0,1-.51,1.16,13.55,13.55,0,0,1-1.1,2.41c0,.74-.71,1.06-.28,2,1.24.12,2-.87,2.87-1.28a18.37,18.37,0,0,1,1.38-1.27,6.61,6.61,0,0,1,1.22-1.26,19.29,19.29,0,0,1,1.79-3.54c.16-.28.2-.64.52-.84-.08-.33.16-.46.31-.67a1.35,1.35,0,0,0,.42-.69c.1-.1.41-.55.66-.26.47-.06.58.78.48,1.07,0,.06-.1,0-.1.12s0,.28-.1.52c-.4.76-.78,1.57-1.22,2.29S144.19,59,144.23,60a2,2,0,0,0,1.27-.06,9.21,9.21,0,0,0,2.72-2.33A13.49,13.49,0,0,1,149.19,56.55Z"/><path class="cls-1" d="M170.57,51.75a3.74,3.74,0,0,1-1.6,2,12.26,12.26,0,0,1-.94.82s-.12.3-.15.31c-.22.13-.58.24-.57.58-.5,0-.39.34-.75.4-.31.35-.88.54-1.13.94-.17.12-.69,0-.62.28s-.55.1-.51.34a5.54,5.54,0,0,0-2,.79,16.75,16.75,0,0,1-2.71.53,3.21,3.21,0,0,0-1.29-.41c-.14-.31-.3-.64-.63-.68a14.12,14.12,0,0,1-.42-1.43c-.06-.48.18-1.23.16-1.72a21.58,21.58,0,0,1,1.26-2.55c1-1.54,2.2-3.37,4.85-3.54a10.23,10.23,0,0,1,1.68,2.56c-.24,0,0,.41,0,.59-.24.35-.65,1.12-1.49.7,0-.19-.14-.36-.13-.56,0-.39.34-.72.14-1.34-.05-.23-.2-.35-.36-.6a1.56,1.56,0,0,0-1.71.28c.17.21.17.21-.09.15s-.12.23-.18.27-.24,0-.33.07-.2.4-.5.37c0,.18-.26.29-.37.44s.06.55-.36.45c.09.38-.14.55-.3.79,0,.59-.66.78-.6,1.43-.26.14-.33.37-.45.58,0,1-.55,1.21.05,2.26a2.22,2.22,0,0,0,1.71.77,10.88,10.88,0,0,0,3.37-1.28c.32-.23.78-.36,1.05-.6.75-.38,1.14-1.11,1.88-1.49a15.77,15.77,0,0,1,1.8-1.44c.56-.48.89-1.25,1.53-1.68C170.26,50.76,170.63,50.67,170.57,51.75Z"/><path class="cls-1" d="M183.48,48.37c-.34.31-.65,1-1,1.27s-.22.43-.56.73-.58.68-.92,1c-.19.14-.45.21-.63.37s-.22.33-.5.37c-.31.49-1.06.55-1.27,1.1-.8.29-1.37.37-2.1.7-.06-.23-.48.06-.69,0-.09-.28-.48-.06-.57-.33-.21,0-.14-.49-.43-.37s-.35.38-.6.49a6.22,6.22,0,0,0-1,.83c-.13.16-.71.42-1,.74a4.6,4.6,0,0,1-1.37.67.65.65,0,0,0-.59,0,2.2,2.2,0,0,1-1.1-2.11,2.69,2.69,0,0,0,.26-1.37,12.52,12.52,0,0,0,.62-1.33c.39-.83,1-1.55,1.46-2.35a2.84,2.84,0,0,0,.78-1.15c.58-.17.64-.63,1-.92s.93-.53,1.07-1c1-.39,1.52-1.06,2.49-1.44.86,0,1.41.7,1.35,1.7a1.36,1.36,0,0,1-.52.72c.11.22-.19.22-.15.38s-.26.16-.42.23c-.56-.49.1-.92,0-1.44-.62-.14-.9.47-1.65.53a7.06,7.06,0,0,1-1,.71c-.28.26-.4.61-.75.77-.54.53-.82,1.23-1.5,1.67a12.59,12.59,0,0,1-.71,1.48c-.26.16-.25.48-.42.69s-.11.57-.43.7a10.08,10.08,0,0,0-.19,2.17c.77.23,1.23-.5,1.86-.67,0-.21.15-.19.27-.31s.18-.2.28-.29.67-.29.56-.63a.94.94,0,0,0,.65-.28c.25-.09.12-.43.48-.46,0-.49.22-.82.15-1.35.17-.31.46-.55.34-1,.84-.52.58-1.69,1.92-1.89.31,0,.4.42.6.57.24.68-.36.85-.23,1.49a2.35,2.35,0,0,0-.56,1.07,2.1,2.1,0,0,0-.54.72c-.12.2-.55.38-.28.79,0,.42.52,0,.64.19.16-.14.45-.16.65-.26.35-.2.65-.18,1-.45s.7-.47,1-.71c.6-.47,1.19-.91,1.79-1.37a3.11,3.11,0,0,1,.77-.9c.41-.37.73-.79,1.19-1.23C182.94,47.66,183.42,48.41,183.48,48.37Z"/><path class="cls-1" d="M193.36,47.48c-.36.23-.41.44-1,.87-.32.45-.55.41-.89.83-.72.82-1.77,1.15-2.55,1.93-.65.18-1.44.66-2.09.25a2.53,2.53,0,0,1,0-1.41c0-.06-.1-.2-.06-.24s0-.19,0-.35.15-.06.18-.17a3,3,0,0,1,.13-.5c0-.13.18-.26.24-.43s-.07-.18-.05-.21a1.41,1.41,0,0,0,.18-.29c.15-.38.54-1.93.7-2.51a17.39,17.39,0,0,0-3.07,3.35,4.14,4.14,0,0,0-.53.87c-.44.45-.45,1.1-.86,1.57-.37.11-.21.57-.54.72s-.33.5-.54.72c-.61.07-.65.48-1.06.13-.18-.55.07-.83.17-1.23a3.17,3.17,0,0,0,.47-1,29.14,29.14,0,0,0,.92-3.16c0-.42-.06-2.48,0-2.79s.34-.45.92-.49c.49.27.59,2.42.42,3,.18,0,0,.11,0,.23l-.11,0c.15.31.14-.21.32-.2s0-.32.32-.3c.05-.33.35-.51.4-.81.27,0,.32-.2.5-.37a6.17,6.17,0,0,0,.76-.77c.1-.1.17-.32.27-.42a18.69,18.69,0,0,0,1.64-1.58c.35-.28,1.2-1,1.83-.81a1.36,1.36,0,0,1-.16,1.82c.16.43-.38.46-.25.9-.31.12-.14.55-.42.69a7.48,7.48,0,0,1-.83,2.52,3.59,3.59,0,0,1-.28.91c-.31.12-.08.59-.28.78.26.26.36-.36.63-.39s.62-.08.77-.29.27-.21.51-.34a10,10,0,0,0,2.31-1.77,2.54,2.54,0,0,0,.74-.62,3.48,3.48,0,0,0,.46-.66c.17-.11.43-.47.58-.58.38-.34.64-.8,1.31-1,.38,1.07.23,1.57-.11,1.68s-.55.28-.55.38A9.88,9.88,0,0,1,193.36,47.48Z"/><path class="cls-1" d="M221,38.46c-.5.52-.41,1-.82,1.34a3.67,3.67,0,0,1-.7.78c-.15.51-.64.62-1,1a10.29,10.29,0,0,1-1.41,1.33,6.46,6.46,0,0,0-1.11.93c-.5.19-.9.46-1.41.71-.26.13-.25.3-.71.42a4.34,4.34,0,0,1-2,.86c-.63.15-1.06.21-1.27-.68-.26-1,.2-1.92.34-2.87,0-.06-.07-.08-.09-.08s-.25.41-.34.43,0,.29,0,.3-.21.57-.51.65a.18.18,0,0,1-.1,0c-.18.49-.79.71-1,1.18a15.64,15.64,0,0,0-1.28,1.15c-.35.4-.81.61-1,1.09a9.65,9.65,0,0,0-1.86.82l-1.23.29c-.35-.28-.77-.6-.85-.93a16,16,0,0,1-.11-2c.64-1,.9-2.71,1.83-3.28.15-.48.63-.77.75-1.27a.37.37,0,0,0,.15,0c.26-.06.31-.34.45-.48s.55-.2.6-.49c.52-.39,1-.6,1.31-.9s.7-.29.83-.57c.49-.2,1.07-.36,1.51-.59a6.47,6.47,0,0,1,2.64.18,45.26,45.26,0,0,0,2.33-5.1c.26-1,1-1.64,1.14-2.64.24-.43.63-.77.64-1.34.07-.22.4-.27.32-.6V28c.22-.08.13-.38.38-.44l.1,0a5,5,0,0,1,.4-1.28c.39-.54,1.05-.9,1.15-1.59l.33-.08a.65.65,0,0,1,.5,0v.07c0,.11.14.06.17.18.2.84-.53,1.09-.35,2-.24.13-.21.45-.45.58a4,4,0,0,1-.42,1.75c-.16.46-.33,1.32-.71,1.48.06,1.37-.81,2.17-1.09,3.35-.54.75-1.45,2.62-1.8,2.7a.22.22,0,0,1-.14,0c.13.53-.79.83-.71,1.47-.69.61-.88,2.07-1.47,2.21a.32.32,0,0,1-.14,0,4.69,4.69,0,0,1-.72,1.45c.18,1-.46,1.57-.31,2.57a.43.43,0,0,0,.44.1c.58-.15.69-.59,1.23-.72l.17,0c.49-.49,1-.34,1.47-.75a5.23,5.23,0,0,1,1.07-.68,6.5,6.5,0,0,1,1.5-1.44c.43-.48.46-.26.75-.8.63-.37.46-.56,1.1-.88a9,9,0,0,0,1.09-1.4C220.92,38.16,220.67,38.27,221,38.46Zm-9.93.39c-.05-.21-.55.08-.58,0s.15-.21-.15-.14l-.28.07a5.66,5.66,0,0,0-1.79.78s0,.1-.07.14a3.55,3.55,0,0,0-1.42,1,12.86,12.86,0,0,0-3,4.28,3.25,3.25,0,0,0-.2,1.63c.07.28.21.24.37.2s.38-.16.55-.2a.49.49,0,0,1,.27,0,3.31,3.31,0,0,1,1.13-.74A2.79,2.79,0,0,1,207,45c.94-1.24,2.48-2.1,3.19-3.48,0,0,0,0,.07,0,.33-.07.61-.76.64-.64a.34.34,0,0,0,0-.11c.35-.19,1.11-1.21,1-1.58A.75.75,0,0,0,211.06,38.85Zm6.34-9.15a8.11,8.11,0,0,1-.28.78,4.54,4.54,0,0,0-.41.74c-.22.06,0,.68-.32.75h-.07a.08.08,0,0,0,0,.06,1.08,1.08,0,0,1-.56,1c.13.53-.31.76-.29,1.25a2.61,2.61,0,0,1-.6.52.93.93,0,0,1,.07.15c.06.28-.38.59-.3.94,0,0,.07.08.18.1a15,15,0,0,0,1.18-2c.27-.63,1.1-1.87,1.09-1.94A.81.81,0,0,1,217,32c0-.07.19-.15.1-.5s1.32-2.61,1.18-3.2c0,0,0-.09-.05-.11C218,28.72,217.65,29.2,217.4,29.7Z"/><path class="cls-1" d="M220.07,37.11a5.6,5.6,0,0,1,.45-.58c.66-.26.82-.82,1.38-1.15a8.68,8.68,0,0,0,.66-1.24c.61-.25.92-.69,1.67-.87.44.19,1.31.3,1.44,1a5.06,5.06,0,0,1,.57,1.14c0,.05.17.06.34,0s0,0,.33-.18a1.72,1.72,0,0,1,.94-.27,2.64,2.64,0,0,1-.32,1.11s-.13.08-.3.2c-.34.23-.13,0-.45.28s-.37.29-.37.31a7.13,7.13,0,0,1-.87,2.33c-.11.18-.61.64-.49.84-.27.11-.13.3-.33.67A13.19,13.19,0,0,1,222.44,43a6.34,6.34,0,0,1-2.5.47,4.63,4.63,0,0,1-.75-2.06c.06-.29.08-.62.16-.88s.25-.21.27-.31,0-.32,0-.48a5.75,5.75,0,0,1,.43-1.58A4.83,4.83,0,0,0,220.07,37.11Zm1.56,1c-.27.09-.26.36-.34.55-.32.7-.48,1.5-.8,2.1.12.49-.17.73.06,1.29l1.15-.28a5,5,0,0,0,1-.82c.07-.12.08-.07.21-.18.3-.29.41-.74.84-.92a8.33,8.33,0,0,1,.49-.93,3.64,3.64,0,0,1,.61-.86c.09-.32.28-.36.19-.74a4,4,0,0,1-1.51.69c-.2-.1-.52,0-.82.09a3.32,3.32,0,0,0-1-.34C221.68,38,221.54,38,221.63,38.16Zm2.26-2.91c-.07.31-.38.48-.69.63,0,.25-.49.71-.13.87,0-.19.16,0,.17.19a4.66,4.66,0,0,0,1.95-.82c-.16-.43-.17-1.09-.44-1.33a5.92,5.92,0,0,0-.82.1C223.94,35,223.8,35.07,223.89,35.25Z"/><path class="cls-1" d="M242.74,36.54c-.09-.15-.72.37-.71.52-.49.44-1.21.73-1.75,1.14-.06.28-.32.12-.54.25,0,0-.23.27-.27.31-.56.23-1.19.26-1.65.5-.15-.29-.54-.17-.61-.55a1.77,1.77,0,0,1-.17-1,6.11,6.11,0,0,1,.76-2c.58-.79,1-2.41,1.69-3.15,0-.27.24-.43.45-.58-.06-.33.27-.41.31-.67a6.7,6.7,0,0,0,.45-.6c.18-.14,0-.47.48-.46.45-.16.43.44.72.54,0,.73-.62,1-.65,1.69-.54.35-.49,1.08-.85,1.51-.53.38-.79,1.65-1.22,2.1-.17.56-.76.87-.68,1.6.54.19,1.14-.38,1.38-.71a5.52,5.52,0,0,0,1.94-1.28c.53-.47,1-.86,1.55-1.36.42-.3.34-.63.69-1s.82-.79,1.39-1c.43.66.18,1.46-.74,2.25-.11.27-.46.48-.59.74C243.9,35.82,242.88,36,242.74,36.54Zm1.54-14.24a4.7,4.7,0,0,1,.75,1.59c-.21.47-1.05.45-1.47.36C243.31,23.3,243.08,22.36,244.28,22.3Z"/><path class="cls-1" d="M253.72,33.53c-.5.39-.69.76-1,1a6.41,6.41,0,0,1-.87.83,2.2,2.2,0,0,0-.44.33c-.12.08-.13.18-.39.31s-.51.33-.71.42,0-.07-.46.16a1.93,1.93,0,0,0-.62.4,7,7,0,0,0-2,.36c-.2-.2-.56-.14-.88-.16-.39-.4-1.1-.67-1.41-1.43a4.46,4.46,0,0,1-.19-1.83c.14-.66,0-1.72.31-2.1a26.21,26.21,0,0,1,.91-3.19c-.21-.14-.6,0-.94.11s-.77.36-1.27.55c-.71.24-1.58.82-2,.11-.15-.43.53-.37.69-.63s.7-.27.81-.54c1.15-.35,2.18-.78,3.27-1.16a.9.9,0,0,0,.37-.43c0-.12,0-.25,0-.36s.52-.74.67-1.12c.33-.68.53-1.39.81-2.1.33-.37.11-1.06.9-1.15.47-.12.29.77.6.92-.3,1.23-1.12,2.12-1.19,3.49.1.22.57-.09.82-.08,2.54-.85,5.26-1.63,7.8-2.46.32.07.76.16.56.58-.57.19-1,.37-1,.34a17.43,17.43,0,0,1-1.76.55c-.43.4-.91.32-1.49.71a3.21,3.21,0,0,1-1.14.17c-.69.54-.82.18-1.54.59a.76.76,0,0,1-.65.16,3.48,3.48,0,0,1-.62.4c-.27.11-.95-.27-1.24.29.08.23-.38.15-.53.26-.1.71-.63,1.18-.72,1.94-.46.54-.25,1.2-.77,1.72.1.3-.2.52-.28.78s0,.65-.26.88c.08.92-.12,1.74.48,2.5a2.05,2.05,0,0,0,.78.28c.1,0,.1.08.12.1.84.17,1.78-.43,2.57-.74a3.31,3.31,0,0,0,1.16-.82s.55-.48.57-.49c.17-.13.27-.33.45-.48s.48-.18.65-.28c.06-.28.5-.31.81-.44C253.84,33,253.45,33.33,253.72,33.53Z"/><path class="cls-1" d="M255.24,33c.26.5.75.66.91,1.33-.2,1-1.67.87-2.18.28C253.52,33.55,254.24,32.84,255.24,33Z"/></g></g></svg>